Coordinates
version=1
nRows=10
nColumns=28
inDegrees=yes

Units are S.I. units (second, meters, Newtons, ...)
Angles are in degrees.

endheader
time	pelvis_tilt	pelvis_list	pelvis_rotation	pelvis_tx	pelvis_ty	pelvis_tz	hip_flexion_r	hip_adduction_r	hip_rotation_r	knee_angle_r	ankle_angle_r	subtalar_angle_r	mtp_angle_r	hip_flexion_l	hip_adduction_l	hip_rotation_l	knee_angle_l	socket_flexion	socket_adduction	socket_rotation	socket_tx	socket_ty	socket_tz	foot_flex	lumbar_extension	lumbar_bending	lumbar_rotation
      0.82083333	     -1.31355233	     -8.67493665	      7.17171678	      0.35151509	      0.98165290	      0.23579639	      8.31685956	     17.16264777	      6.61454800	    -17.81966815	      1.25925943	    -29.22571784	     -7.06672506	     25.22409956	    -12.59705897	      4.16539627	    -69.25512652	      0.00000000	      0.00000000	      0.00000000	      0.00000000	      0.00000000	      0.00000000	     -1.29370313	     -5.35965317	      7.64774677	     -9.02483475
      0.82500000	     -1.39320387	     -8.36660887	      7.04297234	      0.35677234	      0.98283591	      0.23504238	      7.76236938	     16.76320146	      6.74420914	    -17.44362813	      1.27109871	    -28.94392045	     -6.96874350	     25.79166564	    -11.90326872	      4.39838559	    -68.75031902	      0.00000000	      0.00000000	      0.00000000	      0.00000000	      0.00000000	      0.00000000	     -1.32776832	     -5.36869521	      7.36609896	     -8.90714659
      0.82916667	     -1.46988845	     -8.05597571	      6.91556523	      0.36222660	      0.98404659	      0.23438405	      7.16908731	     16.36242158	      6.83295035	    -17.00798467	      1.28204664	    -28.63002116	     -6.85218713	     26.29793812	    -11.25413134	      4.57085203	    -68.14564146	      0.00000000	      0.00000000	      0.00000000	      0.00000000	      0.00000000	      0.00000000	     -1.39671891	     -5.34795722	      7.05107229	     -8.77985446
      0.83333333	     -1.50289000	     -7.74208380	      6.77156407	      0.36766585	      0.98526926	      0.23381199	      6.54682295	     15.96670299	      6.91587379	    -16.59539457	      1.28318042	    -28.27352862	     -6.70482184	     26.73780240	    -10.65209104	      4.69672453	    -67.50053303	      0.00000000	      0.00000000	      0.00000000	      0.00000000	      0.00000000	      0.00000000	     -1.44679783	     -5.38386220	      6.74393194	     -8.64313295
      0.83750000	     -1.04095483	     -7.22846815	      6.58830139	      0.37332671	      0.98734694	      0.23332862	      5.40205288	     15.34960724	      6.63669762	    -16.26097734	      1.62292259	    -26.85977025	     -5.39717971	     26.43153555	     -9.97977328	      4.62750230	    -66.60849670	      0.00000000	      0.00000000	      0.00000000	      0.00000000	      0.00000000	      0.00000000	     -1.46901814	     -6.01765597	      6.24694484	     -8.34594892
      0.84166667	     -1.18253862	     -7.02569059	      6.45795418	      0.37865286	      0.98824143	      0.23288324	      4.93564703	     15.09009008	      6.82946862	    -15.86985901	      1.61496474	    -26.74938403	     -5.31713288	     27.02381035	     -9.49685145	      4.83794587	    -65.93137719	      0.00000000	      0.00000000	      0.00000000	      0.00000000	      0.00000000	      0.00000000	     -1.46563419	     -5.92422221	      6.04376569	     -8.25947803
      0.84583333	     -1.30053920	     -6.80833229	      6.29200620	      0.38410583	      0.98918957	      0.23258632	      4.43553606	     14.82134352	      6.99045688	    -15.46831269	      1.53380862	    -26.62100212	     -5.24700452	     27.52240505	     -9.06583595	      4.96203786	    -65.15365531	      0.00000000	      0.00000000	      0.00000000	      0.00000000	      0.00000000	      0.00000000	     -1.47577273	     -5.84400607	      5.81991383	     -8.16024971
      0.85000000	     -1.35165412	     -6.54597381	      6.09428964	      0.38962393	      0.99026453	      0.23240685	      3.84289617	     14.52016115	      7.20457445	    -15.04996574	      1.36124217	    -26.47518151	     -5.13779748	     27.87946683	     -8.64541337	      5.00678284	    -64.27353901	      0.00000000	      0.00000000	      0.00000000	      0.00000000	      0.00000000	      0.00000000	     -1.49292927	     -5.84681534	      5.53465372	     -8.00192528
      0.85416667	     -1.42369452	     -6.35430651	      5.91181641	      0.39510071	      0.99118986	      0.23228764	      3.30717008	     14.29755067	      7.38628465	    -14.66005096	      1.28669037	    -26.39621955	     -5.06695637	     28.28108223	     -8.31756985	      5.07745407	    -63.39166163	      0.00000000	      0.00000000	      0.00000000	      0.00000000	      0.00000000	      0.00000000	     -1.44967347	     -5.81991104	      5.32784008	     -7.87291671
      0.85833333	     -1.06485398	     -5.98177243	      5.55481776	      0.40065466	      0.99297824	      0.23259703	      2.19529426	     13.95772986	      7.92728471	    -14.14335002	      0.80644489	    -26.68777728	     -4.57911089	     28.00312752	     -8.01268843	      4.81694954	    -62.26072679	      0.00000000	      0.00000000	      0.00000000	      0.00000000	      0.00000000	      0.00000000	     -1.42373905	     -6.34853854	      4.90293833	     -7.36056356
